<?xml version="1.0" encoding="utf-8"?>
<!-- Generator: Adobe Illustrator 23.0.3, SVG Export Plug-In . SVG Version: 6.00 Build 0)  -->
<svg version="1.1" id="Layer_1" xmlns="http://www.w3.org/2000/svg" xmlns:xlink="http://www.w3.org/1999/xlink" x="0px" y="0px"
	 viewBox="0 0 167.9 170.6" style="enable-background:new 0 0 167.9 170.6;" xml:space="preserve">
<style type="text/css">
	.st0{fill:#FFFFFF;}
	.st1{fill:#85754E;}
	.st2{fill:#F26522;}
	.st3{fill:#231F20;}
</style>
<circle class="st0" cx="84" cy="86.5" r="87.3"/>
<title>Asset 1</title>
<g>
	<g id="Gold">
		<path class="st1" d="M123.9,85.6c-1-22.1-19.8-39.1-41.9-38.1C61.5,48.5,45,65,44,85.6H123.9z"/>
		<path class="st1" d="M25.4,71.5c-0.1,0-0.3,0.1-0.5,0.1l-3.8,0.6c-0.2,0-0.4,0-0.5,0c-0.3,0-0.5-0.2-0.5-0.5
			c0-0.2,0.1-0.4,0.2-0.5c0.1-0.1,0.2-0.1,0.3-0.1c0.1,0,0.3-0.1,0.5-0.1l2.4-0.4l0.4-0.1c0.1,0,0.1-0.1,0.1-0.2c0,0,0,0,0,0
			c0,0,0-0.1-0.1-0.1l-0.6-0.6l-0.1-0.1L23,69.4c-0.2-0.2-0.3-0.5-0.3-0.7c0-0.2,0.2-0.4,0.4-0.5l1.3-0.2h0.1
			c0.2-0.1,0.2-0.2,0.1-0.3l-0.3-0.3l-1.8-1.8l-0.3-0.3c-0.1-0.1-0.1-0.2-0.2-0.3c-0.1-0.3,0.1-0.6,0.4-0.6c0.1,0,0.2,0,0.3,0
			c0.1,0,0.2,0.1,0.2,0.1c0.1,0.1,0.2,0.2,0.3,0.3l2.8,2.7c0.1,0.1,0.3,0.3,0.4,0.4c0.2,0.2,0.2,0.6,0,0.8c-0.1,0.1-0.2,0.2-0.3,0.2
			c-0.1,0-0.2,0.1-0.4,0.1l-0.8,0.1c-0.1,0-0.2,0-0.3,0.1c-0.2,0.1-0.2,0.2-0.1,0.3s0.5,0.4,0.7,0.7c0.1,0.1,0.2,0.2,0.4,0.4
			c0.1,0.1,0.1,0.2,0.2,0.3c0.1,0.2,0,0.5-0.2,0.7C25.6,71.5,25.5,71.5,25.4,71.5z"/>
		<path class="st1" d="M29.2,61.2l-0.3,0.1h-0.3c-0.1,0-0.2,0.1-0.3,0.2l-0.1,0.2L28,62.3l-0.3,0.6c0,0.1-0.1,0.2-0.1,0.3
			c0,0.1,0,0.2,0,0.3c0.1,0.1,0.1,0.1,0.1,0.2c0.1,0.1,0.1,0.2,0.1,0.3c0.1,0.2,0,0.4-0.2,0.6c-0.2,0.1-0.4,0.1-0.6,0
			c-0.1-0.1-0.2-0.1-0.3-0.2L26.6,64l-2.4-2.5c-0.1-0.1-0.2-0.2-0.3-0.3c-0.1-0.1-0.1-0.2-0.2-0.3c-0.1-0.3,0-0.5,0.3-0.7
			c0.1,0,0.2-0.1,0.3-0.1h0.5l3.7,0.1c0.1,0,0.3,0,0.4,0c0.1,0,0.2,0,0.3,0.1c0.2,0.1,0.3,0.3,0.3,0.5
			C29.5,60.9,29.3,61.1,29.2,61.2z M27,61.6c0-0.1,0-0.2-0.1-0.3c0,0,0,0,0,0H26c-0.1,0-0.2,0-0.2,0.1c-0.1,0.1-0.1,0.1,0,0.2
			c0.2,0.2,0.3,0.4,0.5,0.5c0,0,0.1,0.1,0.1,0.1c0.1,0.1,0.2,0.1,0.3,0c0.1-0.1,0.2-0.5,0.3-0.5C27,61.7,27,61.6,27,61.6z"/>
		<path class="st1" d="M30,58.6c-0.1,0-0.2-0.1-0.3-0.1l-0.4-0.2l-1.4-0.8l-1.5-0.8c-0.1-0.1-0.2-0.1-0.4-0.2
			c-0.1-0.1-0.2-0.1-0.3-0.3c-0.1-0.2-0.1-0.4,0-0.6c0.1-0.2,0.3-0.3,0.5-0.3c0.1,0,0.2,0.1,0.3,0.1l0.3,0.2c0.3,0.2,0.6,0.4,1,0.5
			l0.3,0.2c0.1,0.1,0.2,0.1,0.3,0c0-0.1,0-0.2,0-0.2c0-0.2-0.1-0.3-0.1-0.5c-0.2-0.8-0.5-1.6-0.7-2.4c0-0.2-0.1-0.4-0.1-0.5
			c0-0.1,0-0.2,0-0.4c0-0.2,0.2-0.4,0.4-0.5c0.2,0,0.4,0,0.5,0.2c0.1,0.1,0.1,0.2,0.2,0.3c0,0.1,0.1,0.2,0.1,0.3
			c0.1,0.4,0.2,0.7,0.3,1.1c0,0.1,0.1,0.2,0.1,0.3c0,0.2,0.2,0.3,0.4,0.3H30c0.5-0.1,1-0.2,1.5-0.2h0.4c0.1,0,0.2,0,0.3,0
			c0.2,0,0.4,0.2,0.4,0.5c0,0.2-0.1,0.4-0.3,0.5c-0.1,0.1-0.2,0.1-0.3,0.1l-0.5,0.1c-0.4,0.1-0.9,0.1-1.3,0.2c-0.1,0-0.2,0-0.4,0.1
			c-0.1,0-0.2,0.1-0.1,0.3c0,0.1,0,0.1,0,0.2L30,57c0,0.2,0.2,0.4,0.3,0.5c0.1,0.1,0.1,0.1,0.2,0.2c0.1,0.2,0.1,0.4,0,0.6
			C30.4,58.5,30.2,58.6,30,58.6z"/>
		<path class="st1" d="M33.9,52.5c-0.2,0.2-0.5,0.2-0.7,0.1c-0.1-0.1-0.2-0.1-0.3-0.2l-1.5-1l-1.4-1c-0.1-0.1-0.2-0.2-0.4-0.3
			c-0.3-0.2-0.3-0.5-0.2-0.8c0-0.1,0.1-0.2,0.2-0.3c0.6-0.8,1.2-1.7,1.8-2.5c0.1-0.1,0.2-0.2,0.3-0.3c0.1-0.1,0.3-0.1,0.5-0.1
			c0.2,0.1,0.4,0.3,0.3,0.6c0,0.1-0.1,0.2-0.1,0.3c-0.1,0.1-0.2,0.3-0.3,0.4c-0.4,0.5-0.8,1.1-1.1,1.6C31,49,31,49.2,30.9,49.3
			c0,0.1,0,0.2,0,0.3c0.1,0.2,0.3,0.3,0.5,0.3c0.1,0,0.2,0,0.2,0c0.1-0.1,0.2-0.1,0.2-0.2c0.2-0.2,0.3-0.5,0.5-0.7s0.2-0.3,0.3-0.4
			c0.1-0.1,0.2-0.2,0.3-0.3c0.2-0.2,0.6-0.2,0.7,0.1c0.1,0.1,0.1,0.3,0.1,0.5c-0.1,0.2-0.1,0.3-0.2,0.5c-0.2,0.3-0.4,0.6-0.6,0.9
			c-0.1,0.1-0.1,0.2-0.2,0.3c0,0-0.1,0.1-0.1,0.2c0,0.1,0,0.1,0,0.2c0.1,0.2,0.3,0.3,0.5,0.4c0.1,0,0.2,0,0.2,0l0.2-0.2l0.2-0.3
			l1-1.5c0.1-0.1,0.2-0.3,0.3-0.4c0.2-0.3,0.5-0.3,0.8-0.1c0.1,0.1,0.2,0.2,0.2,0.4c0,0.1,0,0.2,0,0.3c0,0.1-0.1,0.2-0.1,0.3
			l-1.9,2.7C34.1,52.4,34,52.4,33.9,52.5z"/>
		<path class="st1" d="M40,44.3c-0.1,0-0.2-0.1-0.2-0.1c-0.1-0.1-0.2-0.2-0.3-0.3l-1.2-1.2L37,41.4c-0.1-0.1-0.2-0.2-0.3-0.3
			c-0.2-0.2-0.2-0.6,0-0.8c0-0.1,0.1-0.1,0.2-0.2l2.3-2.2c0.1-0.1,0.1-0.1,0.2-0.2c0.1,0,0.2-0.1,0.3-0.1c0.2-0.1,0.4,0,0.5,0.1
			c0.2,0.1,0.2,0.4,0.1,0.5c0,0.1-0.1,0.2-0.2,0.3c-0.1,0.1-0.2,0.2-0.3,0.3c-0.5,0.5-0.9,0.9-1.4,1.4c-0.1,0.1-0.2,0.2-0.3,0.3
			c-0.1,0.1-0.1,0.2,0,0.3c0.1,0.2,0.2,0.3,0.4,0.4c0.1,0.1,0.2,0.1,0.3,0c0.1-0.1,0.2-0.1,0.3-0.2l0.8-0.7c0.1-0.1,0.2-0.2,0.3-0.3
			c0.1-0.1,0.1-0.1,0.2-0.1c0.3-0.1,0.6,0,0.7,0.3c0,0.1,0,0.2,0,0.3c0,0.1-0.1,0.2-0.1,0.3c-0.1,0.1-0.2,0.2-0.3,0.3l-0.7,0.7
			l-0.2,0.3c-0.1,0.1-0.1,0.2,0,0.3c0.1,0.1,0.1,0.1,0.2,0.2l0.4,0.5c0.1,0.1,0.2,0.2,0.2,0.2c0.1,0.1,0.1,0.2,0.2,0.3
			c0.1,0.2,0,0.4-0.1,0.6C40.3,44.3,40.2,44.3,40,44.3z"/>
		<path class="st1" d="M42.5,38.4c-1-1.2-0.8-2.9,0.4-3.9c1.2-1,2.9-0.8,3.9,0.4c1,1.2,0.8,2.9-0.4,3.9c0,0,0,0,0,0
			C45.2,39.8,43.5,39.6,42.5,38.4C42.5,38.4,42.5,38.4,42.5,38.4z M45.9,35.7c-0.5-0.7-1.5-0.8-2.2-0.3s-0.8,1.5-0.3,2.2
			c0.5,0.7,1.5,0.8,2.2,0.3C46.3,37.4,46.5,36.4,45.9,35.7z"/>
		<path class="st1" d="M52.9,34.1c-0.3,0-0.6-0.1-0.9-0.2l-0.4-0.2c-0.1-0.1-0.3-0.1-0.5,0c-0.2,0.1-0.4,0.3-0.6,0.4
			c0,0-0.1,0.1-0.1,0.1c-0.1,0.1-0.1,0.2-0.1,0.3c0,0.1,0.1,0.2,0.2,0.3c0,0.1,0.1,0.2,0.1,0.3c0.1,0.1,0.1,0.3,0,0.5
			c-0.1,0.3-0.5,0.4-0.7,0.2c0,0-0.1,0-0.1-0.1c-0.1-0.1-0.2-0.2-0.2-0.3c-0.2-0.2-0.3-0.4-0.4-0.6l-0.6-1l-0.9-1.5
			c-0.1-0.1-0.2-0.3-0.2-0.5c-0.1-0.2-0.1-0.5,0.2-0.7c0.1-0.1,0.2-0.2,0.3-0.2l1.6-1c0.2-0.1,0.4-0.2,0.5-0.3
			c1.1-0.4,2.3,0.2,2.6,1.3c0.2,0.5,0.1,0.9,0,1.4c0,0.1-0.1,0.3-0.2,0.4c0,0.1,0,0.2,0.1,0.2c0.2,0.1,0.4,0.1,0.5,0.2h0.4
			c0.1,0,0.2,0,0.3,0.1c0.2,0.1,0.3,0.3,0.2,0.5c0,0,0,0.1-0.1,0.1c-0.1,0.1-0.2,0.2-0.3,0.2C53.3,34.1,53.1,34.1,52.9,34.1z
			 M50.9,32.5c0.1-0.1,0.2-0.1,0.3-0.2c0.4-0.3,0.4-0.9,0-1.3c-0.2-0.2-0.6-0.3-0.9-0.2c-0.1,0-0.3,0.1-0.4,0.2
			c-0.2,0.1-0.8,0.5-1,0.6c-0.1,0-0.1,0.1-0.2,0.2c-0.1,0.1-0.1,0.1,0,0.2c0,0.1,0,0.1,0.1,0.2c0.2,0.3,0.4,0.6,0.6,0.9
			c0,0,0,0,0,0.1c0.1,0.1,0.2,0.1,0.3,0.1c0.1,0,0.1-0.1,0.2-0.1C50.2,32.9,50.5,32.7,50.9,32.5L50.9,32.5z"/>
		<path class="st1" d="M55.9,32.2c-0.3,0.1-0.5,0-0.7-0.3c-0.1-0.1-0.1-0.2-0.2-0.4l-0.8-1.6c-0.2-0.5-0.5-1-0.7-1.5
			c-0.1-0.1-0.1-0.3-0.2-0.4c-0.1-0.3,0-0.6,0.3-0.8c0.1-0.1,0.2-0.1,0.3-0.2l2.8-1.4c0.1-0.1,0.3-0.1,0.4-0.1c0.2,0,0.4,0,0.5,0.2
			c0.2,0.2,0.2,0.5,0,0.7c-0.1,0.1-0.2,0.1-0.3,0.2c-0.1,0.1-0.3,0.1-0.4,0.2c-0.6,0.3-1.2,0.6-1.8,0.9c-0.1,0.1-0.2,0.1-0.4,0.2
			c-0.1,0.1-0.1,0.2-0.1,0.3c0,0.2,0.1,0.4,0.3,0.5c0.1,0.1,0.1,0.1,0.2,0.1c0.1,0,0.2-0.1,0.3-0.1c0.3-0.1,0.5-0.3,0.8-0.4
			s0.3-0.1,0.4-0.2c0.1,0,0.2-0.1,0.3-0.1c0.2,0,0.5,0.1,0.6,0.3c0.1,0.2,0,0.4-0.1,0.6c-0.1,0.1-0.3,0.2-0.4,0.3l-0.9,0.5
			c-0.1,0-0.2,0.1-0.3,0.2c-0.1,0-0.1,0.1-0.1,0.1c0,0.1-0.1,0.1-0.1,0.2c0,0.2,0.1,0.4,0.3,0.6c0,0.1,0.1,0.1,0.2,0.1
			c0.1,0,0.2,0,0.2-0.1l0.4-0.2l1.6-0.8c0.2-0.1,0.3-0.1,0.5-0.2c0.1,0,0.2,0,0.3,0c0.3,0,0.5,0.3,0.4,0.6c0,0,0,0.1,0,0.1
			c0,0.1-0.1,0.2-0.2,0.3l-0.3,0.2l-2.9,1.4C56.1,32.1,56,32.2,55.9,32.2z"/>
		<path class="st1" d="M61.8,29.3c-0.8-0.2-1.3-0.9-1.3-1.7c0-0.1,0-0.2,0-0.3c0-0.1,0-0.2,0.1-0.3c0.2-0.2,0.5-0.3,0.7-0.2
			c0.1,0.1,0.1,0.1,0.2,0.2c0,0.1,0.1,0.2,0.1,0.3c0,0.1,0,0.2,0.1,0.3c0.1,0.2,0.2,0.4,0.4,0.5c0.6,0.2,1.2-0.1,1.4-0.7
			c0,0,0,0,0,0c0-0.1,0-0.2,0-0.2c0-0.2-0.1-0.4-0.3-0.5c-0.2-0.1-0.4-0.1-0.6-0.1h-0.7c-0.2,0-0.3,0-0.5,0
			c-0.7-0.1-1.2-0.8-1.1-1.5c0-0.2,0.1-0.3,0.2-0.5c0.3-0.6,1-0.9,1.6-0.8c0.3,0,0.6,0.2,0.8,0.5c0.1,0.1,0.2,0.3,0.2,0.4
			c0,0.2-0.1,0.4-0.3,0.5c-0.1,0.1-0.3,0.1-0.4,0c-0.1,0-0.2-0.1-0.4-0.2c-0.1,0-0.1-0.1-0.2-0.1c-0.1,0-0.2,0-0.3,0.2
			c0,0.1,0,0.2,0.1,0.3c0.1,0,0.1,0.1,0.2,0.1c0.2,0,0.3,0,0.5,0l0.6,0.1c0.1,0,0.3,0.1,0.4,0.1c0.9,0.3,1.4,1.2,1.2,2.1
			c-0.2,0.8-0.7,1.4-1.5,1.6C62.7,29.4,62.2,29.4,61.8,29.3z"/>
		<path class="st1" d="M68,27c-0.1-0.1-0.1-0.2-0.2-0.3c-0.1-0.1-0.1-0.3-0.1-0.4l-0.7-2.4c0-0.1-0.1-0.3-0.1-0.4
			c-0.1-0.1-0.2-0.2-0.3-0.2c-0.1,0-0.2,0.1-0.4,0.1c-0.2,0-0.3,0.1-0.5,0.1c-0.1,0-0.2,0-0.4,0c-0.2,0-0.4-0.2-0.4-0.4
			c-0.1-0.2,0-0.4,0.2-0.5l0.2-0.1l0.4-0.1l1.4-0.4l1.4-0.4c0.2-0.1,0.3-0.1,0.5-0.1c0.2,0,0.4,0.1,0.5,0.3c0.1,0.2,0.1,0.5-0.1,0.7
			c-0.1,0.1-0.2,0.2-0.3,0.2c-0.2,0.1-0.4,0.1-0.6,0.2c-0.1,0-0.2,0.1-0.3,0.1c-0.1,0-0.1,0.1-0.1,0.2c0,0.1,0,0.2,0,0.3l0.4,1.3
			c0.1,0.5,0.2,0.9,0.4,1.4c0,0.1,0.1,0.2,0.1,0.4c0,0.1,0,0.2,0,0.3c0,0.2-0.2,0.4-0.4,0.4C68.3,27.2,68.1,27.2,68,27z"/>
		<path class="st1" d="M98.6,26.2c-0.3-0.6-0.5-1.3-0.3-1.9c0.1-0.2,0.1-0.5,0.2-0.8l0.1-0.4l0.3-0.9c0-0.1,0.1-0.2,0.1-0.3
			c0-0.1,0.1-0.1,0.1-0.2c0.1-0.1,0.3-0.2,0.5-0.1c0.2,0.1,0.3,0.2,0.4,0.4c0,0.1,0,0.2,0,0.4c0,0.1-0.1,0.2-0.1,0.4l-0.4,1.4
			c-0.1,0.2-0.1,0.4-0.1,0.6c0,0.6,0.3,1.1,0.8,1.4c0.5,0.3,1.2,0.3,1.7,0c0.3-0.2,0.5-0.4,0.6-0.7c0.1-0.1,0.1-0.3,0.2-0.4
			c0.2-0.5,0.3-1,0.5-1.5c0-0.1,0.1-0.2,0.1-0.3c0-0.1,0.1-0.2,0.2-0.3c0.2-0.2,0.5-0.2,0.7,0c0.1,0.1,0.1,0.2,0.2,0.3
			c0,0.1,0,0.2,0,0.3c0,0.1-0.1,0.3-0.1,0.4c-0.1,0.5-0.3,1-0.4,1.5c-0.1,0.2-0.2,0.5-0.3,0.7c-0.6,1.2-1.9,1.8-3.2,1.4
			C99.5,27.3,98.9,26.8,98.6,26.2z"/>
		<path class="st1" d="M105.8,29c0-0.1,0-0.2,0-0.3c0-0.1,0.1-0.2,0.1-0.3l1.5-3.2c0-0.1,0.1-0.2,0.2-0.3c0.1-0.1,0.1-0.2,0.2-0.2
			c0.2-0.2,0.6-0.2,0.8,0.1c0,0,0,0,0,0c0.1,0.1,0.1,0.2,0.2,0.3c0.1,0.2,0.1,0.4,0.2,0.6l0.7,2.5c0,0.1,0.1,0.3,0.1,0.4
			c0,0,0,0.1,0.1,0.1c0.1,0,0.1,0,0.2,0c0-0.1,0.1-0.1,0.2-0.2c0.2-0.4,0.4-0.9,0.6-1.3c0.1-0.2,0.2-0.3,0.3-0.5
			c0-0.1,0.1-0.2,0.2-0.3c0.1-0.2,0.4-0.2,0.6-0.1c0.2,0.1,0.4,0.3,0.3,0.6c0,0.1-0.1,0.3-0.1,0.4c-0.1,0.2-0.2,0.4-0.3,0.5
			l-0.6,1.3l-0.7,1.6c-0.1,0.1-0.1,0.3-0.2,0.4c-0.2,0.3-0.5,0.4-0.8,0.2c-0.1-0.1-0.2-0.2-0.2-0.3c-0.1-0.2-0.1-0.3-0.2-0.5
			c-0.1-0.3-0.2-0.6-0.2-0.8l-0.5-1.9l-0.1-0.4c0-0.1-0.1-0.1-0.2-0.2c0,0-0.1,0-0.2,0.1l-0.2,0.3l-0.6,1.3
			c-0.1,0.1-0.1,0.3-0.2,0.4c0,0.1-0.1,0.2-0.2,0.2c-0.1,0.2-0.4,0.2-0.6,0.1C105.9,29.4,105.8,29.2,105.8,29z"/>
		<path class="st1" d="M113.2,32.6c0-0.1,0-0.2,0.1-0.3l0.2-0.4l0.9-1.5l0.4-0.6l0,0l0.5-0.8l0.3-0.4c0.1-0.1,0.1-0.2,0.2-0.2
			c0.2-0.1,0.4-0.1,0.5,0c0.2,0.1,0.3,0.3,0.2,0.5c0,0.1-0.1,0.2-0.1,0.3c-0.1,0.1-0.1,0.3-0.2,0.4c-0.3,0.5-0.6,1-0.9,1.5l-0.4,0.6
			l0,0l-0.5,0.8c-0.1,0.1-0.2,0.3-0.3,0.4c-0.1,0.1-0.1,0.2-0.2,0.2c-0.2,0.1-0.4,0.1-0.5,0C113.3,33,113.2,32.8,113.2,32.6z"/>
		<path class="st1" d="M118.1,35.9c0-0.1,0-0.2,0-0.3c0-0.1,0-0.2,0.1-0.4l0.9-3.6c0-0.1,0.1-0.3,0.1-0.4c0-0.1,0.1-0.1,0.1-0.2
			c0.1-0.1,0.2-0.2,0.3-0.2c0.3-0.1,0.6,0,0.7,0.3c0,0,0,0.1,0,0.1c0,0.1,0,0.2,0,0.4c0,0.2-0.1,0.4-0.1,0.6
			c-0.2,0.6-0.3,1.3-0.5,1.9c0,0.1,0,0.2-0.1,0.4c0,0.1,0.1,0.2,0.2,0.1c0.1,0,0.2-0.1,0.3-0.2c0.6-0.3,1.2-0.7,1.8-1l0.4-0.2
			l0.3-0.1c0.2-0.1,0.5,0,0.6,0.3c0.1,0.2,0.1,0.5-0.1,0.6c-0.1,0.1-0.1,0.1-0.2,0.2c-0.1,0.1-0.2,0.2-0.3,0.2l-3.2,1.8l-0.4,0.2
			c-0.1,0-0.2,0.1-0.4,0.1C118.4,36.5,118.1,36.3,118.1,35.9C118.1,36,118.1,36,118.1,35.9z"/>
		<path class="st1" d="M123,39.8c-0.2-0.2-0.2-0.5,0-0.7c0.1-0.1,0.2-0.2,0.3-0.3l1.2-1.3l1.1-1.2c0.1-0.1,0.2-0.2,0.4-0.3
			c0.2-0.2,0.6-0.2,0.8,0c0.1,0.1,0.2,0.1,0.3,0.2l2.2,2.1c0.1,0.1,0.2,0.2,0.3,0.3c0.1,0.2,0.1,0.4,0,0.5c-0.1,0.2-0.4,0.3-0.6,0.3
			c-0.1,0-0.2-0.1-0.3-0.2l-0.3-0.3c-0.5-0.5-1-0.9-1.4-1.4c-0.1-0.1-0.2-0.2-0.3-0.3c-0.1-0.1-0.2-0.1-0.3,0
			c-0.2,0.1-0.3,0.2-0.4,0.4c0,0.1,0,0.2,0,0.2c0,0.1,0.1,0.2,0.2,0.3c0.2,0.2,0.4,0.4,0.6,0.6l0.3,0.3c0.1,0.1,0.2,0.2,0.2,0.3
			c0.2,0.2,0.1,0.6-0.2,0.7c-0.2,0.1-0.4,0.1-0.5,0c-0.2-0.1-0.3-0.2-0.4-0.3l-0.8-0.7c-0.1-0.1-0.2-0.1-0.2-0.2
			c0,0-0.1-0.1-0.2-0.1c-0.1,0-0.1,0-0.2,0c-0.2,0.1-0.3,0.3-0.4,0.5c0,0.1,0,0.2,0,0.2c0,0.1,0.1,0.1,0.1,0.2l0.3,0.3l1.3,1.2
			c0.1,0.1,0.3,0.3,0.4,0.4c0.1,0.1,0.1,0.2,0.1,0.3c0.1,0.3-0.1,0.5-0.4,0.6c0,0-0.1,0-0.1,0c-0.1,0-0.2,0-0.3-0.1
			c-0.1-0.1-0.2-0.1-0.3-0.2l-2.4-2.3C123.1,40.1,123,40,123,39.8z"/>
		<path class="st1" d="M130.4,47.8c0-0.3,0-0.7,0.1-1l0.2-0.4c0.1-0.2,0-0.3-0.1-0.5l-0.4-0.5l-0.1-0.1c-0.1-0.1-0.2-0.1-0.4,0
			c-0.1,0.1-0.2,0.1-0.3,0.2c-0.1,0.1-0.2,0.1-0.2,0.1c-0.1,0.1-0.3,0.1-0.4,0c-0.3-0.1-0.4-0.4-0.3-0.7c0,0,0-0.1,0.1-0.1
			c0.1-0.1,0.2-0.2,0.3-0.3c0.2-0.2,0.4-0.3,0.6-0.5l0.9-0.8l1.4-1.1c0.1-0.1,0.3-0.1,0.4-0.2c0.2-0.1,0.5-0.1,0.7,0.1
			c0.1,0.1,0.2,0.2,0.3,0.3l1.2,1.5c0.1,0.2,0.2,0.3,0.3,0.5c0.5,1,0,2.3-1,2.8c-0.4,0.2-0.9,0.3-1.4,0.1l-0.4-0.1
			c-0.1,0-0.2,0-0.2,0.1c-0.1,0.2-0.1,0.4-0.1,0.5c0,0.1,0,0.3,0,0.4c0,0.1,0,0.2,0,0.3c-0.1,0.2-0.3,0.3-0.5,0.3c0,0-0.1,0-0.1,0
			c-0.1-0.1-0.2-0.1-0.2-0.2C130.5,48.3,130.4,48,130.4,47.8z M131.8,45.6c0.1,0.1,0.2,0.2,0.3,0.3c0.3,0.3,0.8,0.3,1.1,0
			c0.3-0.2,0.4-0.6,0.3-1c-0.1-0.1-0.1-0.3-0.2-0.4c-0.1-0.2-0.6-0.8-0.8-0.9c0-0.1-0.1-0.1-0.2-0.2c-0.1,0-0.1,0-0.2,0
			c-0.1,0-0.1,0-0.2,0.1c-0.3,0.2-0.6,0.5-0.9,0.7c0,0,0,0-0.1,0.1c-0.1,0.1-0.1,0.2,0,0.3c0,0.1,0.1,0.1,0.1,0.2
			C131.3,45,131.5,45.3,131.8,45.6z"/>
		<path class="st1" d="M133.4,51.4c0.1-0.8,0.6-1.5,1.4-1.7c0.1,0,0.2,0,0.3,0c0.1,0,0.2,0,0.3,0c0.3,0.1,0.4,0.4,0.3,0.7
			c0,0.1-0.1,0.2-0.2,0.2c-0.1,0.1-0.2,0.1-0.3,0.2c-0.1,0.1-0.2,0.1-0.3,0.1c-0.2,0.1-0.3,0.3-0.4,0.5c-0.1,0.6,0.4,1.1,1,1.2
			c0,0,0,0,0,0c0.1,0,0.2,0,0.2,0c0.2,0,0.4-0.2,0.5-0.4c0-0.2,0-0.4,0-0.6c0-0.3-0.1-0.5-0.1-0.7c0-0.2,0-0.3,0-0.5
			c0-0.7,0.5-1.4,1.2-1.4c0.2,0,0.3,0,0.5,0.1c0.6,0.2,1,0.8,1.1,1.4c0,0.3-0.1,0.6-0.3,0.9c-0.1,0.1-0.2,0.2-0.4,0.3
			c-0.2,0.1-0.4,0-0.6-0.1c-0.1-0.1-0.2-0.3-0.1-0.4c0-0.1,0.1-0.3,0.1-0.4c0-0.1,0-0.2,0-0.2c0-0.1-0.1-0.2-0.2-0.3
			c-0.1,0-0.2,0-0.2,0.1c0,0.1,0,0.2,0,0.2c0,0.2,0.1,0.3,0.1,0.5s0.1,0.4,0.1,0.6c0,0.2,0,0.3,0,0.5c-0.1,0.9-0.9,1.7-1.8,1.7
			c-0.8,0-1.5-0.4-1.9-1.1C133.5,52.4,133.4,51.9,133.4,51.4z"/>
		<path class="st1" d="M137,57.1c0.1-0.1,0.1-0.1,0.2-0.2l0.4-0.2l1.6-0.8l0.7-0.3l0,0l0.8-0.4l0.4-0.2c0.1,0,0.2,0,0.3,0
			c0.2,0,0.4,0.1,0.4,0.3c0.1,0.2,0.1,0.4-0.1,0.6c-0.1,0.1-0.2,0.1-0.3,0.2c-0.1,0.1-0.3,0.2-0.4,0.2l-1.6,0.8l-0.7,0.3l0,0
			l-0.8,0.4l-0.4,0.2c-0.1,0-0.2,0-0.3,0c-0.2,0-0.4-0.1-0.4-0.3C136.8,57.5,136.9,57.3,137,57.1z"/>
		<path class="st1" d="M139.4,62.4c0.1-0.1,0.2-0.1,0.3-0.2l0.4-0.2l2.3-0.9l0.4-0.2c0.1-0.1,0.2-0.2,0.2-0.4c0-0.1-0.1-0.2-0.1-0.3
			s-0.1-0.3-0.2-0.5c0-0.1,0-0.2,0-0.4c0-0.3,0.3-0.5,0.5-0.5c0.1,0,0.2,0.1,0.3,0.1c0.1,0.1,0.1,0.1,0.2,0.2
			c0.1,0.1,0.1,0.3,0.2,0.4l0.5,1.3l0.5,1.4c0.1,0.2,0.1,0.3,0.1,0.5c0,0.2-0.1,0.4-0.2,0.5c-0.2,0.2-0.5,0.2-0.7,0
			c-0.1-0.1-0.2-0.2-0.3-0.4c-0.1-0.2-0.1-0.4-0.2-0.5c0-0.1-0.1-0.2-0.1-0.3c-0.1-0.1-0.1-0.1-0.2-0.1c-0.1,0-0.2,0-0.3,0.1
			l-1.3,0.5l-1.3,0.5c-0.1,0.1-0.2,0.1-0.3,0.1c-0.1,0-0.2,0-0.3,0c-0.2,0-0.4-0.1-0.5-0.3C139.3,62.8,139.3,62.6,139.4,62.4z"/>
		<path class="st1" d="M141.8,69.6c0.1-0.1,0.2-0.1,0.3-0.2c0.1-0.1,0.3-0.1,0.4-0.1c0.2-0.1,0.4-0.2,0.6-0.3l1-0.9
			c0.3-0.3,0.6-0.6,1-0.9l0.5-0.4c0.1,0,0.2-0.1,0.3-0.1c0.2-0.1,0.4,0,0.6,0.2c0.1,0.2,0.1,0.4,0,0.6c-0.1,0.1-0.1,0.2-0.2,0.3
			c-0.1,0.1-0.3,0.3-0.4,0.4l-1,0.9c-0.1,0.1-0.2,0.2-0.3,0.3c-0.1,0.1-0.1,0.2,0,0.3c0,0,0,0,0.1,0c0.1,0,0.2,0.1,0.4,0.1l1.6,0.5
			c0.1,0,0.2,0.1,0.4,0.1c0.1,0,0.2,0.1,0.3,0.2c0.2,0.1,0.2,0.3,0.1,0.5c-0.1,0.2-0.2,0.3-0.4,0.4c-0.1,0-0.2,0-0.4,0l-0.4-0.1
			l-2.5-0.7l-0.2-0.1c-0.2-0.1-0.5-0.1-0.7,0c-0.1,0-0.3,0.1-0.4,0.1c-0.1,0-0.2,0-0.4,0c-0.3-0.1-0.5-0.3-0.4-0.6
			C141.6,69.8,141.7,69.7,141.8,69.6z"/>
		<path class="st1" d="M46,143.8c-0.5-1.3-0.2-2.8,0.8-3.7c0.1-0.1,0.3-0.2,0.5-0.3c0.1-0.1,0.3-0.1,0.5-0.1c0.5-0.1,1,0.3,1,0.8
			c0,0.2,0,0.3-0.1,0.5c-0.1,0.2-0.2,0.3-0.3,0.5c-0.1,0.2-0.2,0.3-0.3,0.4c-0.2,0.3-0.3,0.7-0.2,1.1c0.4,1,1.5,1.5,2.4,1.1
			c0,0,0,0,0.1,0c0.1,0,0.2-0.1,0.3-0.2c0.3-0.2,0.4-0.6,0.4-1c-0.1-0.3-0.2-0.7-0.4-0.9c-0.2-0.4-0.5-0.7-0.7-1s-0.3-0.5-0.4-0.7
			c-0.6-1.1-0.2-2.5,0.9-3.2c0.3-0.1,0.5-0.2,0.8-0.3c1.1-0.2,2.3,0.4,2.9,1.4c0.3,0.5,0.4,1.1,0.3,1.6c0,0.3-0.2,0.5-0.3,0.7
			c-0.3,0.3-0.6,0.4-1,0.3c-0.3-0.1-0.5-0.3-0.5-0.6c-0.1-0.2-0.1-0.5-0.1-0.7c0-0.1-0.1-0.3-0.2-0.4c-0.1-0.2-0.3-0.3-0.5-0.2
			c-0.2,0-0.3,0.2-0.3,0.4c0,0.1,0.1,0.3,0.2,0.4c0.2,0.2,0.3,0.5,0.5,0.7s0.4,0.6,0.6,0.9c0.1,0.2,0.3,0.5,0.4,0.7
			c0.6,1.5-0.1,3.3-1.6,4c-1.2,0.6-2.7,0.5-3.8-0.2C46.9,145.3,46.3,144.6,46,143.8z"/>
		<path class="st1" d="M61.2,151.3c0-0.2,0-0.3,0-0.5c0-0.2,0.1-0.5,0.2-0.7l0.8-2.9l0.8-2.9c0.1-0.3,0.2-0.6,0.3-0.8
			c0.2-0.5,0.6-0.7,1.1-0.7c0.2,0,0.4,0,0.6,0.1l3.3,0.9c0.3,0.1,0.6,0.2,0.9,0.4c1.5,0.8,2.2,2.5,1.8,4.1c-0.4,1.6-1.9,2.8-3.6,2.7
			c-0.4,0-0.7-0.1-1.1-0.1c-0.5-0.1-1-0.3-1.5-0.4c-0.2-0.1-0.4-0.1-0.6-0.1c-0.3-0.1-0.6,0.1-0.7,0.4c-0.1,0.2-0.2,0.5-0.2,0.7
			c-0.1,0.2-0.2,0.4-0.4,0.6c-0.4,0.3-1,0.2-1.3-0.2C61.3,151.6,61.3,151.5,61.2,151.3z M66.7,148.9c0.2,0,0.4,0.1,0.7,0.1
			c0.7,0,1.3-0.4,1.5-1.1c0.2-0.7,0-1.4-0.6-1.8c-0.2-0.1-0.4-0.3-0.7-0.3c-1.3-0.4-1.6-0.5-1.9-0.5c-0.1,0-0.3-0.1-0.4-0.1
			c-0.2,0-0.4,0.1-0.5,0.3c0,0,0,0.1-0.1,0.1l-0.5,1.9c-0.1,0.3,0.1,0.6,0.4,0.7l0.2,0.1C65.4,148.6,66.1,148.8,66.7,148.9z"/>
		<path class="st1" d="M85,155.3c-0.1-0.1-0.3-0.3-0.4-0.4l-0.3-0.4c-0.1-0.2-0.3-0.3-0.4-0.3c-0.2,0-0.3,0-0.5,0h-1.1h-1.1
			c-0.2,0-0.3,0-0.5,0c-0.2,0-0.4,0.1-0.5,0.3c-0.1,0.1-0.2,0.3-0.3,0.4c-0.1,0.2-0.2,0.3-0.4,0.4c-0.3,0.2-0.7,0.2-1,0
			c-0.3-0.2-0.5-0.5-0.4-0.9c0-0.2,0.1-0.4,0.2-0.5c0.1-0.3,0.2-0.5,0.3-0.8c0.9-1.9,1.8-3.8,2.6-5.6c0.1-0.2,0.2-0.5,0.4-0.7
			c0.1-0.2,0.3-0.4,0.4-0.5c0.3-0.3,0.9-0.3,1.2,0c0.1,0.1,0.3,0.3,0.3,0.4c0.1,0.2,0.2,0.5,0.3,0.7l2.3,6c0.1,0.2,0.2,0.5,0.2,0.7
			c0,0.1,0.1,0.3,0.1,0.5c0,0.4-0.2,0.7-0.5,0.8C85.7,155.5,85.3,155.5,85,155.3z M83,152c0.2,0,0.4-0.2,0.4-0.4c0,0,0,0,0,0
			l-0.6-1.4c0-0.1-0.1-0.3-0.3-0.3c-0.1,0-0.3,0.1-0.3,0.2c-0.2,0.4-0.4,0.8-0.6,1.2c0,0.1-0.1,0.2-0.1,0.3c0,0.2,0.1,0.4,0.3,0.4
			c0,0,0,0,0,0c0.3,0,0.7,0.1,1,0.1C82.9,152,82.9,152,83,152z"/>
		<path class="st1" d="M95.4,150.9c-1.2-2.4-0.3-5.3,2.1-6.5c0.6-0.3,1.2-0.5,1.8-0.5c0.7-0.1,1.4,0,2,0.2c0.2,0.1,0.5,0.2,0.7,0.4
			c0.1,0.1,0.3,0.2,0.4,0.3c0.3,0.3,0.3,0.7,0.2,1c-0.2,0.3-0.5,0.6-0.9,0.6c-0.2,0-0.3,0-0.5-0.1c-0.2-0.1-0.5-0.1-0.7-0.2
			c-1.5-0.4-3,0.5-3.4,2c-0.4,1.5,0.5,3,2,3.4c0.9,0.2,1.8,0,2.5-0.6c0.2-0.2,0.4-0.4,0.6-0.6c0.2-0.2,0.3-0.3,0.5-0.4
			c0.3-0.2,0.7-0.2,1,0c0.3,0.2,0.4,0.5,0.4,0.8c0,0.2-0.1,0.5-0.2,0.7c-0.2,0.3-0.5,0.6-0.8,0.9c-0.6,0.5-1.3,0.9-2,1.1
			C98.7,154,96.4,152.9,95.4,150.9z"/>
		<path class="st1" d="M115.1,148.1c-0.4,0.2-0.9,0-1.2-0.4c-0.1-0.2-0.3-0.4-0.4-0.6l-1.6-2.7l-1.5-2.5c-0.1-0.2-0.3-0.5-0.4-0.7
			c-0.3-0.5-0.1-1.1,0.3-1.4c0.1-0.1,0.3-0.2,0.4-0.3c1.6-0.9,3.1-1.8,4.7-2.7c0.2-0.1,0.5-0.2,0.7-0.3c0.5-0.1,1,0.2,1.1,0.7
			c0.1,0.3,0,0.5-0.1,0.7c-0.1,0.1-0.3,0.3-0.4,0.4c-0.2,0.2-0.4,0.3-0.7,0.4c-1,0.6-2,1.2-3,1.8c-0.2,0.1-0.4,0.3-0.6,0.4
			c-0.1,0.1-0.2,0.3-0.1,0.4c0.1,0.3,0.3,0.6,0.5,0.9c0.1,0.1,0.2,0.1,0.4,0.1c0.2,0,0.4-0.1,0.5-0.2c0.4-0.2,0.9-0.5,1.3-0.8
			c0.2-0.1,0.5-0.3,0.7-0.4c0.2-0.1,0.4-0.2,0.6-0.2c0.5-0.1,1,0.2,1.1,0.6c0.1,0.3,0,0.6-0.2,0.9c-0.2,0.2-0.4,0.4-0.7,0.6
			c-0.5,0.3-1.1,0.6-1.6,1c-0.2,0.1-0.3,0.2-0.5,0.3c-0.1,0-0.2,0.1-0.2,0.2c-0.1,0.1-0.1,0.2-0.1,0.3c0.1,0.4,0.3,0.7,0.6,1
			c0.1,0.1,0.2,0.1,0.4,0.1c0.1,0,0.3-0.1,0.4-0.1l0.6-0.4l2.7-1.6c0.3-0.2,0.6-0.3,0.9-0.4c0.2-0.1,0.4-0.1,0.6-0.1
			c0.5,0,0.9,0.4,0.8,0.9c0,0.1,0,0.1,0,0.2c0,0.2-0.1,0.4-0.3,0.5c-0.1,0.1-0.3,0.2-0.4,0.4l-4.9,2.9
			C115.4,148,115.2,148.1,115.1,148.1z"/>
	</g>
	<g id="Orange">
		<path class="st2" d="M82,170.6c-0.8,0-1.5-0.1-2.3-0.1l0.2-3.2c0.7,0,1.5,0.1,2.2,0.1L82,170.6z M86.6,170.6l-0.1-3.2l2.2-0.1
			l0.2,3.2C88.1,170.5,87.3,170.6,86.6,170.6L86.6,170.6z M75.2,170.2c-0.8-0.1-1.5-0.2-2.3-0.3l0.4-3.2c0.7,0.1,1.4,0.2,2.2,0.3
			L75.2,170.2z M93.4,170.1l-0.4-3.2c0.7-0.1,1.5-0.2,2.2-0.3l0.4,3.2C94.9,169.9,94.1,170,93.4,170.1L93.4,170.1z M68.4,169.2
			c-0.8-0.1-1.5-0.3-2.2-0.4l0.7-3.1c0.7,0.1,1.4,0.3,2.2,0.4L68.4,169.2z M100.2,169.1l-0.6-3.2c0.7-0.1,1.4-0.3,2.2-0.4l0.7,3.1
			C101.7,168.8,100.9,168.9,100.2,169.1L100.2,169.1z M61.7,167.7l-2.2-0.6l0.9-3.1c0.7,0.2,1.4,0.4,2.1,0.6L61.7,167.7z
			 M106.8,167.5l-0.9-3.1l2.1-0.6l1,3.1C108.3,167.1,107.6,167.3,106.8,167.5L106.8,167.5z M55.2,165.6c-0.7-0.3-1.4-0.5-2.1-0.8
			l1.2-3c0.7,0.3,1.4,0.5,2.1,0.8L55.2,165.6z M113.3,165.4l-1.1-3c0.7-0.3,1.4-0.5,2-0.8l1.2,3C114.7,164.8,114,165.1,113.3,165.4
			L113.3,165.4z M48.8,163c-0.7-0.3-1.4-0.6-2.1-1l1.4-2.9l2,0.9L48.8,163z M119.6,162.7l-1.4-2.9c0.7-0.3,1.3-0.6,2-1l1.4,2.9
			C121,162,120.3,162.4,119.6,162.7L119.6,162.7z M42.7,159.9c-0.7-0.4-1.3-0.8-2-1.1l1.7-2.8c0.6,0.4,1.3,0.7,1.9,1.1L42.7,159.9z
			 M125.7,159.6l-1.6-2.8c0.6-0.4,1.3-0.7,1.9-1.1l1.7,2.8C127,158.8,126.3,159.1,125.7,159.6L125.7,159.6z M36.9,156.3
			c-0.6-0.4-1.3-0.9-1.9-1.3l1.9-2.6c0.6,0.4,1.2,0.9,1.8,1.3L36.9,156.3z M131.5,155.9l-1.8-2.7c0.6-0.4,1.2-0.8,1.8-1.3l1.9,2.6
			C132.7,155,132.1,155.4,131.5,155.9L131.5,155.9z M31.4,152.2c-0.6-0.5-1.2-1-1.8-1.4l2.1-2.5c0.6,0.5,1.1,0.9,1.7,1.4L31.4,152.2
			z M136.9,151.8l-2-2.5c0.6-0.5,1.1-0.9,1.7-1.4l2.1,2.4C138.1,150.8,137.5,151.3,136.9,151.8z M26.3,147.7c-0.6-0.5-1.1-1-1.6-1.6
			l2.3-2.3l1.6,1.5L26.3,147.7z M142.1,147.3l-2.2-2.3l1.6-1.5l2.3,2.3C143.2,146.2,142.6,146.7,142.1,147.3z M21.5,142.8
			c-0.5-0.6-1-1.1-1.5-1.7l2.5-2c0.5,0.6,0.9,1.1,1.4,1.6L21.5,142.8z M146.8,142.3l-2.4-2.1c0.5-0.6,1-1.1,1.4-1.7l2.5,2.1
			C147.8,141.2,147.3,141.7,146.8,142.3z M17.1,137.5c-0.5-0.6-0.9-1.2-1.4-1.8l2.6-1.9c0.4,0.6,0.9,1.2,1.3,1.8L17.1,137.5z
			 M151.1,137l-2.6-1.9c0.4-0.6,0.9-1.2,1.3-1.8l2.6,1.9C152,135.8,151.6,136.4,151.1,137L151.1,137z M13.2,131.9
			c-0.4-0.6-0.8-1.3-1.2-1.9l2.8-1.7c0.4,0.6,0.8,1.2,1.2,1.9L13.2,131.9z M155,131.4l-2.7-1.7c0.4-0.6,0.8-1.3,1.1-1.9l2.8,1.7
			C155.8,130.1,155.4,130.7,155,131.4z M9.7,126c-0.4-0.7-0.7-1.3-1-2l2.9-1.4c0.3,0.7,0.7,1.3,1,1.9L9.7,126z M158.4,125.4
			l-2.9-1.5c0.3-0.7,0.7-1.3,1-2l2.9,1.4C159.1,124.1,158.8,124.7,158.4,125.4L158.4,125.4z M6.8,119.8c-0.3-0.7-0.6-1.4-0.9-2.1
			l3-1.2c0.3,0.7,0.6,1.3,0.8,2L6.8,119.8z M161.3,119.2l-3-1.3c0.3-0.7,0.6-1.4,0.8-2l3,1.2C161.9,117.8,161.6,118.5,161.3,119.2
			L161.3,119.2z M4.3,113.4c-0.3-0.7-0.5-1.4-0.7-2.2l3.1-0.9c0.2,0.7,0.4,1.4,0.7,2.1L4.3,113.4z M163.7,112.8l-3.1-1
			c0.2-0.7,0.4-1.4,0.6-2.1l3.1,0.9C164.2,111.3,164,112.1,163.7,112.8L163.7,112.8z M2.4,106.8c-0.2-0.7-0.4-1.5-0.5-2.2l3.2-0.7
			c0.2,0.7,0.3,1.4,0.5,2.1L2.4,106.8z M165.6,106.2l-3.1-0.7c0.2-0.7,0.3-1.4,0.5-2.2l3.2,0.7C165.9,104.7,165.8,105.4,165.6,106.2
			z M1.1,100.2c-0.1-0.8-0.2-1.6-0.3-2.3l3.2-0.4c0.1,0.7,0.2,1.4,0.3,2.2L1.1,100.2z M166.9,99.5l-3.2-0.5c0.1-0.7,0.2-1.4,0.3-2.2
			l3.2,0.4C167.1,98,167,98.7,166.9,99.5L166.9,99.5z M0.3,93.3c-0.1-0.7-0.1-1.5-0.1-2.3l3.2-0.2c0,0.7,0.1,1.5,0.1,2.2L0.3,93.3z
			 M167.7,92.7l-3.2-0.2c0.1-0.7,0.1-1.5,0.1-2.2l3.2,0.1C167.8,91.1,167.7,91.9,167.7,92.7z M3.2,86.5H0v-0.2c0-0.8,0-1.6,0-2.3
			l3.2,0.1c0,0.7,0,1.5,0,2.2L3.2,86.5z M164.6,85.8c0-0.7,0-1.5-0.1-2.2l3.2-0.1c0,0.8,0.1,1.5,0.1,2.3L164.6,85.8z M3.5,79.8
			l-3.2-0.3c0.1-0.8,0.1-1.5,0.2-2.3l3.2,0.4C3.7,78.3,3.6,79,3.5,79.8z M164.3,79.3c-0.1-0.7-0.1-1.5-0.2-2.2l3.2-0.4
			c0.1,0.8,0.2,1.5,0.2,2.3L164.3,79.3z M4.3,73.3l-3.2-0.6c0.1-0.8,0.3-1.5,0.4-2.3l3.2,0.6C4.6,71.8,4.5,72.5,4.3,73.3L4.3,73.3z
			 M163.4,72.8c-0.1-0.7-0.3-1.4-0.4-2.2l3.2-0.6c0.1,0.7,0.3,1.5,0.4,2.2L163.4,72.8z M5.7,66.8L2.6,66c0.2-0.7,0.4-1.5,0.6-2.2
			l3.1,0.9C6.1,65.4,5.9,66.1,5.7,66.8L5.7,66.8z M162,66.3c-0.2-0.7-0.4-1.4-0.6-2.1l3.1-0.9c0.2,0.7,0.4,1.5,0.6,2.2L162,66.3z
			 M7.6,60.5l-3-1C4.8,58.8,5,58,5.3,57.3l3,1.1C8.1,59.1,7.8,59.8,7.6,60.5z M160.1,60c-0.3-0.7-0.5-1.4-0.8-2.1l3-1.2
			c0.3,0.7,0.5,1.4,0.8,2.2L160.1,60z M10,54.3L7,53c0.3-0.7,0.6-1.4,1-2.1l2.9,1.4C10.6,53,10.3,53.7,10,54.3z M157.8,53.9
			c-0.3-0.7-0.6-1.3-0.9-2l2.9-1.4c0.3,0.7,0.6,1.4,0.9,2.1L157.8,53.9z M12.9,48.4L10,46.9c0.4-0.7,0.7-1.3,1.1-2l2.8,1.6
			C13.6,47.1,13.2,47.8,12.9,48.4z M154.9,48c-0.4-0.6-0.7-1.3-1.1-1.9l2.8-1.6c0.4,0.7,0.8,1.3,1.1,2L154.9,48z M16.2,42.7L13.5,41
			c0.4-0.6,0.8-1.3,1.3-1.9l2.7,1.8C17,41.5,16.6,42.1,16.2,42.7z M151.4,42.4c-0.4-0.6-0.8-1.2-1.2-1.8l2.6-1.8
			c0.4,0.6,0.9,1.3,1.3,1.9L151.4,42.4z M20,37.4l-2.5-2c0.5-0.6,0.9-1.2,1.4-1.8l2.5,2C20.9,36.2,20.5,36.8,20,37.4z M147.6,37
			c-0.5-0.6-0.9-1.1-1.4-1.7l2.5-2c0.5,0.6,1,1.2,1.4,1.8L147.6,37z M24.3,32.3l-2.4-2.2c0.5-0.6,1-1.1,1.6-1.7l2.3,2.2
			C25.3,31.3,24.8,31.8,24.3,32.3z M143.3,32c-0.5-0.5-1-1.1-1.5-1.6l2.3-2.3c0.5,0.5,1.1,1.1,1.6,1.7L143.3,32z M28.9,27.6
			l-2.2-2.4c0.5-0.5,1.1-1,1.7-1.5l2.1,2.4C30,26.6,29.4,27.1,28.9,27.6z M138.7,27.4c-0.5-0.5-1.1-1-1.6-1.5l2.1-2.4
			c0.6,0.5,1.1,1,1.7,1.5L138.7,27.4z M33.9,23.4l-2-2.5c0.6-0.5,1.2-0.9,1.8-1.4l1.9,2.6C35,22.5,34.5,22.9,33.9,23.4L33.9,23.4z
			 M133.7,23.1l-1.8-1.3l1.9-2.6c0.6,0.5,1.2,0.9,1.8,1.4L133.7,23.1z M39.2,19.5l-1.8-2.7c0.6-0.4,1.3-0.8,1.9-1.2l1.7,2.7
			C40.4,18.7,39.8,19.1,39.2,19.5z M128.3,19.3c-0.6-0.4-1.2-0.8-1.8-1.2l1.7-2.7c0.6,0.4,1.3,0.8,1.9,1.2L128.3,19.3z M44.8,16.1
			l-1.6-2.8c0.7-0.4,1.3-0.7,2-1.1l1.5,2.8C46.1,15.4,45.5,15.7,44.8,16.1z M122.7,15.8l-2-1l1.5-2.8l2,1.1L122.7,15.8z M50.7,13.1
			l-1.3-2.9l2.1-0.9l1.3,3C52,12.5,51.4,12.8,50.7,13.1L50.7,13.1z M116.7,12.9l-2-0.9l1.2-3c0.7,0.3,1.4,0.6,2.1,0.9L116.7,12.9z
			 M56.7,10.6l-1.1-3c0.7-0.3,1.4-0.5,2.2-0.7l1,3.1L56.7,10.6z M110.6,10.5c-0.7-0.2-1.4-0.5-2.1-0.7l1-3.1
			c0.7,0.2,1.4,0.5,2.2,0.7L110.6,10.5z M63.1,8.7l-0.8-3.1C63,5.4,63.7,5.2,64.5,5l0.7,3.1L63.1,8.7z M104.3,8.6L102.2,8l0.7-3.1
			c0.7,0.2,1.5,0.4,2.2,0.6L104.3,8.6z M69.5,7.3l-0.6-3.2c0.7-0.1,1.5-0.3,2.3-0.4l0.5,3.2C70.9,7,70.2,7.1,69.5,7.3z M97.9,7.2
			c-0.7-0.1-1.4-0.2-2.2-0.3l0.5-3.2C97,3.7,97.7,3.9,98.4,4L97.9,7.2z M76,6.4l-0.3-3.2C76.5,3.1,77.2,3,78,3l0.2,3.2
			C77.5,6.2,76.8,6.3,76,6.4z M91.3,6.3c-0.7-0.1-1.4-0.1-2.2-0.2l0.2-3.2c0.8,0,1.5,0.1,2.3,0.2L91.3,6.3z"/>
		<path class="st2" d="M15.4,93.7h8.1l3.3,11.1l3.7-11.2h6.7l3.7,11.2l3.3-11.1h8L44.5,117h-6.7l-4.1-11.5L29.7,117H23L15.4,93.7z"
			/>
		<path class="st2" d="M58.3,93.5H66l9.7,23.3h-8.4l-1.2-3.1H58l-1.2,3.1h-8.3L58.3,93.5z M64.2,108.2l-2.1-5.6l-2.1,5.6H64.2z"/>
		<path class="st2" d="M77.8,93.7h7.7v8.7l6.6-8.7h9l-8.1,10l8.2,13.1h-9.2l-4.5-7.3l-2,2.4v4.9h-7.7V93.7z"/>
		<path class="st2" d="M103.1,93.7h19.7v6.3h-12.1v2.3H122v5.7h-11.3v2.5H123v6.3h-19.9V93.7z"/>
		<path class="st2" d="M126.2,93.7h11.3c4.1,0,6.7,1,8.3,2.6c1.4,1.5,2.2,3.4,2.1,5.5v0.1c0.1,3.1-1.7,5.9-4.6,7.1l5.4,7.9h-8.8
			l-4.4-6.6h-1.6v6.6h-7.7V93.7z M137.3,104.7c1.9,0,3-0.8,3-2.2v-0.1c0-1.5-1.2-2.2-2.9-2.2h-3.4v4.5H137.3z"/>
	</g>
	<g id="Black">
		<path class="st3" d="M68.4,81.4c0,0-0.4,0.3-0.4,0.5c0,0.3,0.2,0.5,0.4,0.5h0.5v4.9H99v-4.9h0.5c0.3,0,0.5-0.2,0.4-0.5
			c0,0,0,0,0,0c0-0.2-0.4-0.5-0.4-0.5v-1.9l1.2-1.2l-1.5-0.7c0-0.6,0-1.2,0-1.8c0.1-0.2-0.5-0.1-0.5-0.1c0.2,0,0.3-0.1,0.5-0.2
			c0,0-0.2-0.3-0.3-0.4s-0.1-0.3-0.1-0.3l0.4-0.2l-0.3-2.4L98,71.6L97,72.2l-0.4,2.4l0.4,0.2c0,0.2-0.1,0.3-0.2,0.4
			c-0.2,0.2,0.1,0.3,0.1,0.3s-0.3,0-0.3,0.3c0,0.2,0.1,0.3,0.2,0.4l-0.1,0.6l-0.3-0.1V66.7l1.1-0.3l-0.3-2.1h-2.3v-0.6l0.2-0.1v-0.2
			l-0.2-0.1v-0.4l-0.3-0.1v-7.8l0.2-0.1v-0.3l-0.2-0.1v-3.3c0.1,0,0.2,0,0.2-0.1c0.1,0,0.1-0.1,0.1-0.2l0.3-0.1v-0.2
			c0-0.1,0.1-0.1,0.2-0.2c0.1,0,0-0.3,0-0.3h0.1L95.5,50c-3.4-1.6-2.2-3.1-3-4.6c-0.5-0.8-1.2-1.4-2.1-1.7v-0.3L90,43.2v-0.1
			L89.7,43v-3.8l0.7-1.3l-1.6-1.5c-0.3-0.8-0.5-1.7-0.6-2.6L84.8,8.9c0,0,0.2,0,0.2-0.2s-0.3-0.1-0.3-0.1l-0.3-2.5
			c0,0,0.3-0.1,0.3-0.2s-0.2-0.1-0.2-0.1c0.5,0,0.9-0.4,0.8-0.9c0,0,0,0,0,0c0-0.9-1.1-0.9-1.1-0.9V1.6c0,0,0.2,0.2,0.6,0
			c0.3-0.3,0.4-0.7,0.4-1.1c-0.2,0-0.2,0.8-0.7,0.8S84.2,0,83.9,0s0,1.4-0.4,1.4s-0.7-0.8-0.8-0.8s0,0.9,0.4,1.1s0.6,0,0.6,0v2.3
			c0,0-1.1,0.1-1.1,0.9c0,0.5,0.4,0.9,0.8,0.9c0,0,0,0,0,0c0,0-0.2,0.1-0.2,0.1s0.3,0.2,0.3,0.2l-0.3,2.5c0,0-0.3,0-0.3,0.1
			s0.2,0.2,0.2,0.2l-3.4,24.8c-0.1,0.9-0.3,1.7-0.6,2.6l-1.6,1.5l0.7,1.3V43l-0.3,0.1v0.1l-0.4,0.1v0.3c-0.9,0.3-1.6,0.9-2.1,1.7
			c-0.8,1.5,0.5,3-3,4.6l-0.1,0.2h0.1c0,0-0.1,0.2,0,0.3c0.1,0.1,0.1,0.1,0.2,0.2v0.2l0.3,0.1c0,0.1,0.1,0.1,0.2,0.2
			c0.1,0,0.2,0.1,0.2,0.1v3.3L73,54.5v0.3l0.2,0.1v7.8l-0.3,0.1v0.4l-0.2,0.1v0.2l0.2,0.1v0.6h-2.3l-0.3,2.1l1.1,0.3v10.1l-0.3,0.1
			l-0.1-0.6c0.1-0.1,0.2-0.3,0.2-0.4c0-0.2-0.3-0.3-0.3-0.3s0.3-0.2,0.1-0.3c-0.1-0.1-0.2-0.3-0.2-0.4l0.4-0.2l-0.4-2.4l-0.9-0.6
			L69,72.2l-0.3,2.4l0.4,0.2c0,0,0,0.2-0.1,0.3s-0.3,0.3-0.3,0.4c0.1,0.1,0.3,0.1,0.5,0.2c0,0-0.5,0-0.5,0.1c0,0.6,0,1.2,0,1.8
			l-1.5,0.7l1.2,1.2L68.4,81.4z"/>
		<path class="st3" d="M109.2,130c-15.6,9.1-34.9,9.1-50.4,0h-5.5c18.4,13.1,43.1,13.1,61.5,0H109.2z"/>
		<path class="st3" d="M34.2,80.6c3.4-27.5,28.4-47,55.8-43.7c22.9,2.8,40.9,20.8,43.7,43.7h3c-3.4-29.1-29.7-50.1-58.9-46.7
			C53.3,36.7,34,56,31.1,80.6H34.2z"/>
		<path class="st3" d="M83.9,164.8h-0.3c-43.1-0.2-77.9-35.3-77.8-78.4l0,0C6,43.4,40.9,8.6,83.9,8.6h0.3
			c43.1,0.1,78,35.1,77.9,78.3S127.1,164.9,83.9,164.8z M83.9,11.6C42.5,11.5,8.8,45.1,8.7,86.5c-0.1,41.5,33.5,75.2,74.9,75.2l0,0
			H84c41.5,0.1,75.2-33.5,75.2-74.9s-33.5-75.2-74.9-75.2L83.9,11.6z"/>
		<path class="st3" d="M22.1,123.6c0.9,1.5,1.9,3,2.9,4.5h117.8c1-1.5,2-3,2.9-4.5L22.1,123.6z"/>
		<path class="st3" d="M155.8,82.9H12c-0.1,1.2-0.1,2.5-0.1,3.8c0,0.3,0,0.5,0,0.8h144c0-0.3,0-0.5,0-0.8
			C155.9,85.4,155.9,84.2,155.8,82.9z"/>
	</g>
</g>
</svg>
